<svg version="1.2" xmlns="http://www.w3.org/2000/svg" viewBox="0 0 320 160" width="320" height="160">
	<title>image_dots-svg</title>
	<style>
		.s0 { fill: #1a2236 } 
	</style>
	<path id="Layer" class="s0" d="m1.5 3c-0.8 0-1.5-0.7-1.5-1.5 0-0.8 0.7-1.5 1.5-1.5 0.8 0 1.5 0.7 1.5 1.5 0 0.8-0.7 1.5-1.5 1.5z"/>
	<path id="Layer" class="s0" d="m1.5 25.4c-0.8 0-1.5-0.6-1.5-1.5 0-0.8 0.7-1.5 1.5-1.5 0.8 0 1.5 0.7 1.5 1.5 0 0.9-0.7 1.5-1.5 1.5z"/>
	<path id="Layer" class="s0" d="m1.5 47.9c-0.8 0-1.5-0.7-1.5-1.5 0-0.9 0.7-1.5 1.5-1.5 0.8 0 1.5 0.6 1.5 1.5 0 0.8-0.7 1.5-1.5 1.5z"/>
	<path id="Layer" class="s0" d="m1.5 70.3c-0.8 0-1.5-0.7-1.5-1.5 0-0.8 0.7-1.5 1.5-1.5 0.8 0 1.5 0.7 1.5 1.5 0 0.8-0.7 1.5-1.5 1.5z"/>
	<path id="Layer" class="s0" d="m1.5 92.7c-0.8 0-1.5-0.7-1.5-1.5 0-0.8 0.7-1.5 1.5-1.5 0.8 0 1.5 0.7 1.5 1.5 0 0.8-0.7 1.5-1.5 1.5z"/>
	<path id="Layer" class="s0" d="m1.5 115.1c-0.8 0-1.5-0.6-1.5-1.5 0-0.8 0.7-1.5 1.5-1.5 0.8 0 1.5 0.7 1.5 1.5 0 0.9-0.7 1.5-1.5 1.5z"/>
	<path id="Layer" class="s0" d="m1.5 137.6c-0.8 0-1.5-0.7-1.5-1.5 0-0.9 0.7-1.5 1.5-1.5 0.8 0 1.5 0.6 1.5 1.5 0 0.8-0.7 1.5-1.5 1.5z"/>
	<path id="Layer" class="s0" d="m1.5 160c-0.8 0-1.5-0.7-1.5-1.5 0-0.8 0.7-1.5 1.5-1.5 0.8 0 1.5 0.7 1.5 1.5 0 0.8-0.7 1.5-1.5 1.5z"/>
	<path id="Layer" class="s0" d="m23.9 3c-0.8 0-1.5-0.7-1.5-1.5 0-0.8 0.7-1.5 1.5-1.5 0.9 0 1.5 0.7 1.5 1.5 0 0.8-0.6 1.5-1.5 1.5z"/>
	<path id="Layer" class="s0" d="m23.9 25.4c-0.8 0-1.5-0.6-1.5-1.5 0-0.8 0.7-1.5 1.5-1.5 0.9 0 1.5 0.7 1.5 1.5 0 0.9-0.6 1.5-1.5 1.5z"/>
	<path id="Layer" class="s0" d="m23.9 47.9c-0.8 0-1.5-0.7-1.5-1.5 0-0.9 0.7-1.5 1.5-1.5 0.9 0 1.5 0.6 1.5 1.5 0 0.8-0.6 1.5-1.5 1.5z"/>
	<path id="Layer" class="s0" d="m23.9 70.3c-0.8 0-1.5-0.7-1.5-1.5 0-0.8 0.7-1.5 1.5-1.5 0.9 0 1.5 0.7 1.5 1.5 0 0.8-0.6 1.5-1.5 1.5z"/>
	<path id="Layer" class="s0" d="m23.9 92.7c-0.8 0-1.5-0.7-1.5-1.5 0-0.8 0.7-1.5 1.5-1.5 0.9 0 1.5 0.7 1.5 1.5 0 0.8-0.6 1.5-1.5 1.5z"/>
	<path id="Layer" class="s0" d="m23.9 115.1c-0.8 0-1.5-0.6-1.5-1.5 0-0.8 0.7-1.5 1.5-1.5 0.9 0 1.5 0.7 1.5 1.5 0 0.9-0.6 1.5-1.5 1.5z"/>
	<path id="Layer" class="s0" d="m23.9 137.6c-0.8 0-1.5-0.7-1.5-1.5 0-0.9 0.7-1.5 1.5-1.5 0.9 0 1.5 0.6 1.5 1.5 0 0.8-0.6 1.5-1.5 1.5z"/>
	<path id="Layer" class="s0" d="m23.9 160c-0.8 0-1.5-0.7-1.5-1.5 0-0.8 0.7-1.5 1.5-1.5 0.9 0 1.5 0.7 1.5 1.5 0 0.8-0.6 1.5-1.5 1.5z"/>
	<path id="Layer" class="s0" d="m46.4 3c-0.9 0-1.5-0.7-1.5-1.5 0-0.8 0.6-1.5 1.5-1.5 0.8 0 1.5 0.7 1.5 1.5 0 0.8-0.7 1.5-1.5 1.5z"/>
	<path id="Layer" class="s0" d="m46.4 25.4c-0.9 0-1.5-0.6-1.5-1.5 0-0.8 0.6-1.5 1.5-1.5 0.8 0 1.5 0.7 1.5 1.5 0 0.9-0.7 1.5-1.5 1.5z"/>
	<path id="Layer" class="s0" d="m46.4 47.9c-0.9 0-1.5-0.7-1.5-1.5 0-0.9 0.6-1.5 1.5-1.5 0.8 0 1.5 0.6 1.5 1.5 0 0.8-0.7 1.5-1.5 1.5z"/>
	<path id="Layer" class="s0" d="m46.4 70.3c-0.9 0-1.5-0.7-1.5-1.5 0-0.8 0.6-1.5 1.5-1.5 0.8 0 1.5 0.7 1.5 1.5 0 0.8-0.7 1.5-1.5 1.5z"/>
	<path id="Layer" class="s0" d="m46.4 92.7c-0.9 0-1.5-0.7-1.5-1.5 0-0.8 0.6-1.5 1.5-1.5 0.8 0 1.5 0.7 1.5 1.5 0 0.8-0.7 1.5-1.5 1.5z"/>
	<path id="Layer" class="s0" d="m46.4 115.1c-0.9 0-1.5-0.6-1.5-1.5 0-0.8 0.6-1.5 1.5-1.5 0.8 0 1.5 0.7 1.5 1.5 0 0.9-0.7 1.5-1.5 1.5z"/>
	<path id="Layer" class="s0" d="m46.4 137.6c-0.9 0-1.5-0.7-1.5-1.5 0-0.9 0.6-1.5 1.5-1.5 0.8 0 1.5 0.6 1.5 1.5 0 0.8-0.7 1.5-1.5 1.5z"/>
	<path id="Layer" class="s0" d="m46.4 160c-0.9 0-1.5-0.7-1.5-1.5 0-0.8 0.6-1.5 1.5-1.5 0.8 0 1.5 0.7 1.5 1.5 0 0.8-0.7 1.5-1.5 1.5z"/>
	<path id="Layer" class="s0" d="m68.8 3c-0.8 0-1.5-0.7-1.5-1.5 0-0.8 0.7-1.5 1.5-1.5 0.8 0 1.5 0.7 1.5 1.5 0 0.8-0.7 1.5-1.5 1.5z"/>
	<path id="Layer" class="s0" d="m68.8 25.4c-0.8 0-1.5-0.6-1.5-1.5 0-0.8 0.7-1.5 1.5-1.5 0.8 0 1.5 0.7 1.5 1.5 0 0.9-0.7 1.5-1.5 1.5z"/>
	<path id="Layer" class="s0" d="m68.8 47.9c-0.8 0-1.5-0.7-1.5-1.5 0-0.9 0.7-1.5 1.5-1.5 0.8 0 1.5 0.6 1.5 1.5 0 0.8-0.7 1.5-1.5 1.5z"/>
	<path id="Layer" class="s0" d="m68.8 70.3c-0.8 0-1.5-0.7-1.5-1.5 0-0.8 0.7-1.5 1.5-1.5 0.8 0 1.5 0.7 1.5 1.5 0 0.8-0.7 1.5-1.5 1.5z"/>
	<path id="Layer" class="s0" d="m68.8 92.7c-0.8 0-1.5-0.7-1.5-1.5 0-0.8 0.7-1.5 1.5-1.5 0.8 0 1.5 0.7 1.5 1.5 0 0.8-0.7 1.5-1.5 1.5z"/>
	<path id="Layer" class="s0" d="m68.8 115.1c-0.8 0-1.5-0.6-1.5-1.5 0-0.8 0.7-1.5 1.5-1.5 0.8 0 1.5 0.7 1.5 1.5 0 0.9-0.7 1.5-1.5 1.5z"/>
	<path id="Layer" class="s0" d="m68.8 137.6c-0.8 0-1.5-0.7-1.5-1.5 0-0.9 0.7-1.5 1.5-1.5 0.8 0 1.5 0.6 1.5 1.5 0 0.8-0.7 1.5-1.5 1.5z"/>
	<path id="Layer" class="s0" d="m68.8 160c-0.8 0-1.5-0.7-1.5-1.5 0-0.8 0.7-1.5 1.5-1.5 0.8 0 1.5 0.7 1.5 1.5 0 0.8-0.7 1.5-1.5 1.5z"/>
	<path id="Layer" class="s0" d="m91.2 3c-0.8 0-1.5-0.7-1.5-1.5 0-0.8 0.7-1.5 1.5-1.5 0.8 0 1.5 0.7 1.5 1.5 0 0.8-0.7 1.5-1.5 1.5z"/>
	<path id="Layer" class="s0" d="m91.2 25.4c-0.8 0-1.5-0.6-1.5-1.5 0-0.8 0.7-1.5 1.5-1.5 0.8 0 1.5 0.7 1.5 1.5 0 0.9-0.7 1.5-1.5 1.5z"/>
	<path id="Layer" class="s0" d="m91.2 47.9c-0.8 0-1.5-0.7-1.5-1.5 0-0.9 0.7-1.5 1.5-1.5 0.8 0 1.5 0.6 1.5 1.5 0 0.8-0.7 1.5-1.5 1.5z"/>
	<path id="Layer" class="s0" d="m91.2 70.3c-0.8 0-1.5-0.7-1.5-1.5 0-0.8 0.7-1.5 1.5-1.5 0.8 0 1.5 0.7 1.5 1.5 0 0.8-0.7 1.5-1.5 1.5z"/>
	<path id="Layer" class="s0" d="m91.2 92.7c-0.8 0-1.5-0.7-1.5-1.5 0-0.8 0.7-1.5 1.5-1.5 0.8 0 1.5 0.7 1.5 1.5 0 0.8-0.7 1.5-1.5 1.5z"/>
	<path id="Layer" class="s0" d="m91.2 115.1c-0.8 0-1.5-0.6-1.5-1.5 0-0.8 0.7-1.5 1.5-1.5 0.8 0 1.5 0.7 1.5 1.5 0 0.9-0.7 1.5-1.5 1.5z"/>
	<path id="Layer" class="s0" d="m91.2 137.6c-0.8 0-1.5-0.7-1.5-1.5 0-0.9 0.7-1.5 1.5-1.5 0.8 0 1.5 0.6 1.5 1.5 0 0.8-0.7 1.5-1.5 1.5z"/>
	<path id="Layer" class="s0" d="m91.2 160c-0.8 0-1.5-0.7-1.5-1.5 0-0.8 0.7-1.5 1.5-1.5 0.8 0 1.5 0.7 1.5 1.5 0 0.8-0.7 1.5-1.5 1.5z"/>
	<path id="Layer" class="s0" d="m113.6 3c-0.8 0-1.5-0.7-1.5-1.5 0-0.8 0.7-1.5 1.5-1.5 0.9 0 1.5 0.7 1.5 1.5 0 0.8-0.6 1.5-1.5 1.5z"/>
	<path id="Layer" class="s0" d="m113.6 25.4c-0.8 0-1.5-0.6-1.5-1.5 0-0.8 0.7-1.5 1.5-1.5 0.9 0 1.5 0.7 1.5 1.5 0 0.9-0.6 1.5-1.5 1.5z"/>
	<path id="Layer" class="s0" d="m113.6 47.9c-0.8 0-1.5-0.7-1.5-1.5 0-0.9 0.7-1.5 1.5-1.5 0.9 0 1.5 0.6 1.5 1.5 0 0.8-0.6 1.5-1.5 1.5z"/>
	<path id="Layer" class="s0" d="m113.6 70.3c-0.8 0-1.5-0.7-1.5-1.5 0-0.8 0.7-1.5 1.5-1.5 0.9 0 1.5 0.7 1.5 1.5 0 0.8-0.6 1.5-1.5 1.5z"/>
	<path id="Layer" class="s0" d="m113.6 92.7c-0.8 0-1.5-0.7-1.5-1.5 0-0.8 0.7-1.5 1.5-1.5 0.9 0 1.5 0.7 1.5 1.5 0 0.8-0.6 1.5-1.5 1.5z"/>
	<path id="Layer" class="s0" d="m113.6 115.1c-0.8 0-1.5-0.6-1.5-1.5 0-0.8 0.7-1.5 1.5-1.5 0.9 0 1.5 0.7 1.5 1.5 0 0.9-0.6 1.5-1.5 1.5z"/>
	<path id="Layer" class="s0" d="m113.6 137.6c-0.8 0-1.5-0.7-1.5-1.5 0-0.9 0.7-1.5 1.5-1.5 0.9 0 1.5 0.6 1.5 1.5 0 0.8-0.6 1.5-1.5 1.5z"/>
	<path id="Layer" class="s0" d="m113.6 160c-0.8 0-1.5-0.7-1.5-1.5 0-0.8 0.7-1.5 1.5-1.5 0.9 0 1.5 0.7 1.5 1.5 0 0.8-0.6 1.5-1.5 1.5z"/>
	<path id="Layer" class="s0" d="m136.1 3c-0.9 0-1.5-0.7-1.5-1.5 0-0.8 0.6-1.5 1.5-1.5 0.8 0 1.5 0.7 1.5 1.5 0 0.8-0.7 1.5-1.5 1.5z"/>
	<path id="Layer" class="s0" d="m136.1 25.4c-0.9 0-1.5-0.6-1.5-1.5 0-0.8 0.6-1.5 1.5-1.5 0.8 0 1.5 0.7 1.5 1.5 0 0.9-0.7 1.5-1.5 1.5z"/>
	<path id="Layer" class="s0" d="m136.1 47.9c-0.9 0-1.5-0.7-1.5-1.5 0-0.9 0.6-1.5 1.5-1.5 0.8 0 1.5 0.6 1.5 1.5 0 0.8-0.7 1.5-1.5 1.5z"/>
	<path id="Layer" class="s0" d="m136.1 70.3c-0.9 0-1.5-0.7-1.5-1.5 0-0.8 0.6-1.5 1.5-1.5 0.8 0 1.5 0.7 1.5 1.5 0 0.8-0.7 1.5-1.5 1.5z"/>
	<path id="Layer" class="s0" d="m136.1 92.7c-0.9 0-1.5-0.7-1.5-1.5 0-0.8 0.6-1.5 1.5-1.5 0.8 0 1.5 0.7 1.5 1.5 0 0.8-0.7 1.5-1.5 1.5z"/>
	<path id="Layer" class="s0" d="m136.1 115.1c-0.9 0-1.5-0.6-1.5-1.5 0-0.8 0.6-1.5 1.5-1.5 0.8 0 1.5 0.7 1.5 1.5 0 0.9-0.7 1.5-1.5 1.5z"/>
	<path id="Layer" class="s0" d="m136.1 137.6c-0.9 0-1.5-0.7-1.5-1.5 0-0.9 0.6-1.5 1.5-1.5 0.8 0 1.5 0.6 1.5 1.5 0 0.8-0.7 1.5-1.5 1.5z"/>
	<path id="Layer" class="s0" d="m136.1 160c-0.9 0-1.5-0.7-1.5-1.5 0-0.8 0.6-1.5 1.5-1.5 0.8 0 1.5 0.7 1.5 1.5 0 0.8-0.7 1.5-1.5 1.5z"/>
	<path id="Layer" class="s0" d="m158.5 3c-0.8 0-1.5-0.7-1.5-1.5 0-0.8 0.7-1.5 1.5-1.5 0.8 0 1.5 0.7 1.5 1.5 0 0.8-0.7 1.5-1.5 1.5z"/>
	<path id="Layer" class="s0" d="m158.5 25.4c-0.8 0-1.5-0.6-1.5-1.5 0-0.8 0.7-1.5 1.5-1.5 0.8 0 1.5 0.7 1.5 1.5 0 0.9-0.7 1.5-1.5 1.5z"/>
	<path id="Layer" class="s0" d="m158.5 47.9c-0.8 0-1.5-0.7-1.5-1.5 0-0.9 0.7-1.5 1.5-1.5 0.8 0 1.5 0.6 1.5 1.5 0 0.8-0.7 1.5-1.5 1.5z"/>
	<path id="Layer" class="s0" d="m158.5 70.3c-0.8 0-1.5-0.7-1.5-1.5 0-0.8 0.7-1.5 1.5-1.5 0.8 0 1.5 0.7 1.5 1.5 0 0.8-0.7 1.5-1.5 1.5z"/>
	<path id="Layer" class="s0" d="m158.5 92.7c-0.8 0-1.5-0.7-1.5-1.5 0-0.8 0.7-1.5 1.5-1.5 0.8 0 1.5 0.7 1.5 1.5 0 0.8-0.7 1.5-1.5 1.5z"/>
	<path id="Layer" class="s0" d="m158.5 115.1c-0.8 0-1.5-0.6-1.5-1.5 0-0.8 0.7-1.5 1.5-1.5 0.8 0 1.5 0.7 1.5 1.5 0 0.9-0.7 1.5-1.5 1.5z"/>
	<path id="Layer" class="s0" d="m158.5 137.6c-0.8 0-1.5-0.7-1.5-1.5 0-0.9 0.7-1.5 1.5-1.5 0.8 0 1.5 0.6 1.5 1.5 0 0.8-0.7 1.5-1.5 1.5z"/>
	<path id="Layer" class="s0" d="m158.5 160c-0.8 0-1.5-0.7-1.5-1.5 0-0.8 0.7-1.5 1.5-1.5 0.8 0 1.5 0.7 1.5 1.5 0 0.8-0.7 1.5-1.5 1.5z"/>
</svg>